<?xml version="1.0" encoding="utf-8"?>
<!-- Generator: Adobe Illustrator 16.0.0, SVG Export Plug-In . SVG Version: 6.00 Build 0)  -->
<!DOCTYPE svg PUBLIC "-//W3C//DTD SVG 1.1//EN" "http://www.w3.org/Graphics/SVG/1.1/DTD/svg11.dtd">
<svg version="1.1" id="Layer_1" xmlns="http://www.w3.org/2000/svg" xmlns:xlink="http://www.w3.org/1999/xlink" x="0px" y="0px"
	 width="952.452px" height="105.117px" viewBox="0 0 952.452 105.117" enable-background="new 0 0 952.452 105.117"
	 xml:space="preserve">
<g>
	<g>
		<g>
			<path fill="none" stroke="#D1D3D4" stroke-width="5" stroke-linecap="round" stroke-linejoin="round" d="M14.118,86.316
				c0,0,0.454-0.229,1.351-0.641"/>
			
				<path fill="none" stroke="#D1D3D4" stroke-width="5" stroke-linecap="round" stroke-linejoin="round" stroke-dasharray="3.0227,14.1061" d="
				M28.581,80.496C52.934,72.01,107.042,58.283,183.3,68.285c0,0,95.286,31.145,181.425,18.031c0,0,119.488-36.012,223.149-37.955
				c0,0,79.636,4.078,122.417,25.389c0,0,86.886,37.588,167.761-9.701"/>
			<path fill="none" stroke="#D1D3D4" stroke-width="5" stroke-linecap="round" stroke-linejoin="round" d="M884.077,60.359
				c0.42-0.27,0.841-0.541,1.261-0.816"/>
		</g>
	</g>
	<g>
		<path fill="#D1D3D4" d="M927.132,53.959c-0.245,0.152-0.49,0.303-0.735,0.449C935.729,48.859,929.419,52.584,927.132,53.959z"/>
		<path fill="#D1D3D4" d="M925.416,36.297c0.53-0.197,0.804-0.791,0.608-1.32l-2.234-6.461c-0.195-0.531-0.789-0.805-1.32-0.609
			c-0.53,0.195-0.805,0.791-0.609,1.322l2.236,6.459C924.291,36.217,924.886,36.49,925.416,36.297z"/>
		<path fill="#D1D3D4" d="M930.639,32.629c0.186,0.504,0.75,0.764,1.253,0.578l0.098-0.037c0.504-0.186,0.764-0.748,0.578-1.252
			l-2.248-6.094c-0.186-0.502-0.748-0.762-1.252-0.576l-0.099,0.035c-0.504,0.186-0.763,0.75-0.577,1.254L930.639,32.629z"/>
		<path fill="#D1D3D4" d="M932.932,39.893c-0.366-0.158-0.792,0.014-0.948,0.381c-0.007,0.016-0.663,1.484-1.943,1.914
			c-0.695,0.234-1.485,0.119-2.351-0.334c-0.72-1.285-2.136-1.658-2.998-1.658c-0.398,0.004-0.717,0.326-0.716,0.725
			c0,0.396,0.324,0.721,0.721,0.723c0.251,0.002,1.297,0.068,1.766,0.984c0.015,0.039,0.03,0.076,0.052,0.113
			c0.091,0.211,0.154,0.461,0.172,0.762c-0.003,0.195-0.062,1.168-0.951,1.262c-0.398,0.041-0.687,0.396-0.645,0.795
			c0.038,0.371,0.353,0.646,0.718,0.646c0.025,0,0.051,0,0.077-0.004c1.702-0.178,2.204-1.701,2.242-2.613
			c0.396,0.111,0.786,0.168,1.167,0.168c0.413,0,0.815-0.064,1.206-0.195c1.91-0.643,2.778-2.637,2.813-2.721
			C933.471,40.473,933.3,40.047,932.932,39.893z"/>
		<path fill="#D1D3D4" d="M940.11,27.844c-2.923-4.348-6.569-5.744-11.125-6.492c-5.224-0.857-10.691-0.045-15.576,1.92
			c-4.131,1.662-8.416,4.402-8.416,4.402c-1.617,1.129-12.292,7.42-12.283,19.076c0.001,2.984,0.764,5.941,2.625,8.295
			c1.897,2.398,4.631,3.98,7.533,4.844c3.161,0.939,8.881,0.92,12.41,0.311c0.368-0.064,0.752-0.152,1.123-0.23
			c1.762-0.369,3.614-1.004,5.332-1.693c2.969-1.193,5.738-2.734,8.314-4.604c5.323-3.867,10.144-9.471,11.413-16.1
			C942.042,34.533,941.725,30.244,940.11,27.844z M911.465,59.316c-0.13-0.164-7.429-4.018-9.916-13.379
			c-1.612-6.066-0.369-13.236-0.369-13.236l0.568-0.551c0.521-0.496,1.058-0.971,1.609-1.432
			c-0.392,10.426,0.301,20.432,10.916,28.246C913.344,59.127,912.407,59.246,911.465,59.316z M939.856,38.43
			c-1.743,6.621-7.032,11.971-12.725,15.529c2.287-1.375,8.597-5.1-0.735,0.449c-7.013-2.863-10.585-9.166-12.542-16.227
			c-2.151-7.756,0.311-13.375,0.325-13.691c0,0,1.343-0.484,1.812-0.631c6.079-1.887,13.601-2.416,19.172,1.221
			C939.688,28.035,941.194,33.342,939.856,38.43z"/>
		<path fill="#D1D3D4" d="M927.132,53.959c-0.446,0.266-0.739,0.445-0.735,0.449C926.642,54.262,926.887,54.111,927.132,53.959z"/>
		<path fill="#D1D3D4" d="M924.329,20.074c0.046,0,0.091-0.004,0.137-0.01c0.494-0.076,0.834-0.537,0.759-1.031
			c-0.424-2.781,0.106-5.381,0.111-5.406c0.103-0.488-0.21-0.969-0.698-1.07c-0.485-0.102-0.969,0.209-1.072,0.697
			c-0.023,0.119-0.603,2.934-0.13,6.053C923.504,19.752,923.889,20.074,924.329,20.074z"/>
		<path fill="#D1D3D4" d="M933.231,21.467c0.08,0.021,0.161,0.031,0.24,0.031c0.397,0,0.761-0.264,0.871-0.664l0.104-0.398
			c0.242-0.947,0.433-1.695,2.321-3.764c0.337-0.369,0.312-0.941-0.058-1.277c-0.371-0.338-0.94-0.311-1.276,0.057
			c-2.193,2.404-2.447,3.393-2.739,4.537l-0.097,0.367C932.466,20.838,932.75,21.334,933.231,21.467z"/>
		<circle fill="#D1D3D4" cx="938.903" cy="13.441" r="1.781"/>
		<circle fill="#D1D3D4" cx="925.191" cy="9.782" r="1.782"/>
		<path fill="#D1D3D4" d="M901.888,20.758c0.49-0.098,0.808-0.572,0.71-1.064c-0.371-1.857-0.019-3.561,0.992-4.791
			c0.99-1.209,2.502-1.873,4.259-1.873c6.438,0,8.21,6.771,8.282,7.059c0.101,0.412,0.47,0.688,0.876,0.688
			c0.071,0,0.146-0.008,0.218-0.027c0.484-0.117,0.781-0.609,0.661-1.094c-0.021-0.084-2.17-8.434-10.037-8.434
			c-2.274,0-4.337,0.924-5.657,2.535c-1.359,1.658-1.846,3.893-1.366,6.293C900.922,20.537,901.399,20.857,901.888,20.758z"/>
		<path fill="#D1D3D4" d="M893.064,41.219c0.166-0.473-0.083-0.988-0.555-1.154c-5.415-1.896-7.345-4.938-8.01-7.156
			c-0.797-2.656-0.113-5.211,0.919-6.564c5.97-7.834,19.44-0.441,19.576-0.367c0.435,0.242,0.987,0.088,1.23-0.348
			c0.243-0.438,0.088-0.986-0.349-1.23c-0.149-0.084-3.724-2.066-8.177-3.002c-6.081-1.277-10.826,0.053-13.72,3.852
			c-1.214,1.592-2.259,4.689-1.214,8.18c0.786,2.621,3.011,6.195,9.146,8.344c0.099,0.035,0.199,0.053,0.299,0.053
			C892.585,41.824,892.934,41.592,893.064,41.219z"/>
	</g>
</g>
</svg>
