<?xml version="1.0" encoding="utf-8"?>
<!-- Generator: Adobe Illustrator 16.0.0, SVG Export Plug-In . SVG Version: 6.00 Build 0)  -->
<!DOCTYPE svg PUBLIC "-//W3C//DTD SVG 1.1//EN" "http://www.w3.org/Graphics/SVG/1.1/DTD/svg11.dtd">
<svg version="1.1" id="Layer_1" xmlns="http://www.w3.org/2000/svg" xmlns:xlink="http://www.w3.org/1999/xlink" x="0px" y="0px"
	 width="41px" height="41px" viewBox="0 0 41 41" enable-background="new 0 0 41 41" xml:space="preserve">
<path id="pinterest-circle-icon" fill="#F1C243" d="M20.5,0.334C9.363,0.334,0.335,9.363,0.335,20.5
	c0,11.137,9.028,20.166,20.165,20.166c11.138,0,20.166-9.028,20.166-20.166C40.666,9.363,31.638,0.334,20.5,0.334z M23.146,27.137
	c-1.577,0-3.058-0.852-3.564-1.819c0,0-0.848,3.363-1.028,4.013c-0.63,2.292-2.49,4.587-2.634,4.775
	c-0.102,0.131-0.324,0.09-0.347-0.083c-0.041-0.292-0.515-3.187,0.043-5.546c0.28-1.186,1.877-7.953,1.877-7.953
	s-0.465-0.932-0.465-2.31c0-2.164,1.255-3.778,2.814-3.778c1.327,0,1.968,0.997,1.968,2.191c0,1.335-0.85,3.33-1.288,5.178
	c-0.366,1.55,0.776,2.812,2.304,2.812c2.765,0,4.627-3.552,4.627-7.759c0-3.199-2.153-5.594-6.073-5.594
	c-4.425,0-7.185,3.302-7.185,6.99c0,1.271,0.376,2.169,0.964,2.863c0.269,0.318,0.307,0.447,0.209,0.813
	c-0.071,0.269-0.23,0.915-0.298,1.171c-0.097,0.37-0.396,0.501-0.73,0.365c-2.038-0.832-2.989-3.065-2.989-5.576
	c0-4.146,3.497-9.117,10.431-9.117c5.573,0,9.24,4.031,9.24,8.361C31.021,22.86,27.838,27.137,23.146,27.137z"/>
</svg>
