<?xml version="1.0" encoding="utf-8"?>
<!-- Generator: Adobe Illustrator 16.0.0, SVG Export Plug-In . SVG Version: 6.00 Build 0)  -->
<!DOCTYPE svg PUBLIC "-//W3C//DTD SVG 1.1//EN" "http://www.w3.org/Graphics/SVG/1.1/DTD/svg11.dtd">
<svg version="1.1" id="Layer_1" xmlns="http://www.w3.org/2000/svg" xmlns:xlink="http://www.w3.org/1999/xlink" x="0px" y="0px"
	 width="250px" height="250px" viewBox="0 0 250 250" enable-background="new 0 0 250 250" xml:space="preserve">
<circle opacity="0.6" fill="#6BC9C8" cx="128.621" cy="124.999" r="109.012"/>
<g>
	<g>
		<rect x="118.765" y="120.404" fill="#07776C" width="34.822" height="24.708"/>
		<path fill="#0A8E85" d="M133.688,176.121c0,4.396-3.336,7.959-7.45,7.959H78.125c-4.114,0-7.449-3.563-7.449-7.959v-62.018
			c0-4.396,3.335-7.96,7.449-7.96h48.113c4.114,0,7.45,3.563,7.45,7.96V176.121z"/>
		<path fill="#0A8E85" d="M199.354,162.795c0,4.245-2.933,7.688-6.549,7.688h-42.288c-3.616,0-6.548-3.442-6.548-7.688v-59.907
			c0-4.246,2.932-7.688,6.548-7.688h42.288c3.616,0,6.549,3.442,6.549,7.688V162.795z"/>
		<circle fill="#EA4934" cx="83.268" cy="152.232" r="6.104"/>
		<circle fill="#A7A9AC" cx="102.513" cy="101.832" r="38.471"/>
	</g>
	<circle fill="#E6E7E8" cx="102.514" cy="101.832" r="27.239"/>
</g>
<g>
	<path fill="#FFFFFF" d="M75.274,101.832c0,15.043,12.195,27.239,27.239,27.239V74.593C87.47,74.593,75.274,86.789,75.274,101.832z"
		/>
	<path fill="#E6E7E8" d="M102.514,74.593v54.479c15.043,0,27.239-12.196,27.239-27.239S117.557,74.593,102.514,74.593z"/>
</g>
</svg>
