<?xml version="1.0" encoding="utf-8"?>
<!-- Generator: Adobe Illustrator 16.0.0, SVG Export Plug-In . SVG Version: 6.00 Build 0)  -->
<!DOCTYPE svg PUBLIC "-//W3C//DTD SVG 1.1//EN" "http://www.w3.org/Graphics/SVG/1.1/DTD/svg11.dtd">
<svg version="1.1" id="Layer_1" xmlns="http://www.w3.org/2000/svg" xmlns:xlink="http://www.w3.org/1999/xlink" x="0px" y="0px"
	 width="250px" height="250px" viewBox="0 0 250 250" enable-background="new 0 0 250 250" xml:space="preserve">
<circle opacity="0.6" fill="#6BC9C8" cx="131.549" cy="124.999" r="109.012"/>
<g>
	<g>
		<g id="XMLID_1_">
			<g>
				<polygon fill="#EA4934" points="185.957,111.621 131.549,150.924 77.141,111.621 				"/>
				<polygon fill="#EA4934" points="185.957,190.224 77.141,190.224 131.549,150.924 				"/>
			</g>
		</g>
	</g>
	<polygon fill="#EA4934" points="77.142,111.62 131.55,72.823 185.958,111.62 	"/>
	<g>
		<polygon fill="#FFFFFF" points="91.6,61.777 91.6,150.922 171.5,150.922 171.5,74.713 158.564,61.777 		"/>
		<polygon fill="#DEDDDD" points="171.5,74.713 158.564,61.777 158.564,74.713 		"/>
	</g>
	<g>
		<rect x="104.156" y="79.66" fill="#E5E5E5" width="27.394" height="6.475"/>
		<rect x="131.55" y="79.66" fill="#DEDDDD" width="27.394" height="6.475"/>
		<rect x="104.156" y="91.729" fill="#E5E5E5" width="27.394" height="6.475"/>
		<rect x="131.55" y="91.729" fill="#DEDDDD" width="27.394" height="6.475"/>
		<rect x="131.55" y="103.873" fill="#DEDDDD" width="27.394" height="6.476"/>
		<rect x="104.156" y="103.873" fill="#E5E5E5" width="27.394" height="6.476"/>
		<rect x="131.55" y="116.044" fill="#DEDDDD" width="27.394" height="6.476"/>
		<rect x="104.156" y="116.044" fill="#E5E5E5" width="27.394" height="6.476"/>
		<rect x="131.55" y="127.974" fill="#DEDDDD" width="27.394" height="6.475"/>
		<rect x="104.156" y="127.974" fill="#E5E5E5" width="27.394" height="6.475"/>
		<rect x="104.156" y="140.294" fill="#E5E5E5" width="27.394" height="6.476"/>
		<rect x="131.55" y="140.294" fill="#DEDDDD" width="27.394" height="6.476"/>
	</g>
	<polygon fill="#C52026" points="77.142,111.62 77.142,190.223 131.55,150.923 	"/>
	<polygon fill="#C52026" points="131.55,150.923 185.958,190.223 185.958,111.62 	"/>
</g>
</svg>
