<?xml version="1.0" standalone="no"?>
<!DOCTYPE svg PUBLIC "-//W3C//DTD SVG 20010904//EN"
 "http://www.w3.org/TR/2001/REC-SVG-20010904/DTD/svg10.dtd">
<svg version="1.0" xmlns="http://www.w3.org/2000/svg"
 width="1042.000000pt" height="1042.000000pt" viewBox="0 0 1042.000000 1042.000000"
 preserveAspectRatio="xMidYMid meet">
<metadata>
Created by potrace 1.11, written by Peter Selinger 2001-2013
</metadata>
<g transform="translate(0.000000,1042.000000) scale(0.100000,-0.100000)"
fill="#000000" stroke="none">
<path d="M7267 9606 c-89 -32 -158 -103 -188 -193 -18 -55 -7 -170 21 -226 51
-101 149 -160 265 -160 83 0 142 23 203 78 62 55 92 124 92 208 0 89 -14 133
-59 193 -54 71 -141 114 -229 114 -37 -1 -84 -7 -105 -14z"/>
<path d="M4290 9074 c-213 -39 -291 -64 -425 -132 -428 -220 -660 -674 -606
-1187 17 -155 33 -208 77 -241 71 -55 172 -38 222 36 20 30 23 43 18 95 -17
194 -18 364 -1 446 62 308 270 543 565 637 119 38 182 47 335 46 162 0 258
-15 400 -61 428 -139 777 -524 950 -1049 20 -62 45 -121 56 -133 70 -74 178
-65 243 22 30 40 25 113 -14 222 -220 615 -627 1057 -1129 1225 -162 54 -266
71 -476 75 -104 2 -201 2 -215 -1z"/>
<path d="M9575 8997 c-130 -43 -205 -149 -205 -289 0 -121 59 -216 166 -269
72 -35 189 -34 260 3 53 28 111 85 141 140 14 25 18 55 18 128 0 106 -9 131
-72 201 -74 81 -208 119 -308 86z"/>
<path d="M7159 8837 c-47 -31 -65 -75 -83 -197 -51 -351 -41 -885 18 -976 59
-89 198 -84 257 8 22 36 22 10 -1 337 -12 158 -1 398 25 572 20 131 19 168 -5
207 -44 71 -143 95 -211 49z"/>
<path d="M9114 8400 c-38 -24 -194 -207 -281 -328 -89 -123 -157 -265 -198
-412 -41 -146 -42 -162 -12 -220 48 -94 169 -108 244 -28 14 14 36 72 58 148
57 200 121 308 311 525 104 120 122 159 104 223 -12 44 -30 69 -67 94 -38 25
-118 24 -159 -2z"/>
<path d="M1865 7449 c-519 -33 -941 -219 -1265 -555 -127 -132 -190 -217 -255
-349 -112 -225 -157 -428 -157 -700 0 -129 5 -198 21 -287 108 -606 517 -1102
1176 -1427 161 -79 379 -168 435 -177 111 -18 207 115 156 214 -25 48 -58 69
-196 122 -712 278 -1141 714 -1266 1290 -23 105 -26 410 -6 505 61 276 145
431 341 625 219 217 484 347 837 411 160 30 533 32 723 5 465 -65 961 -221
1440 -452 189 -91 219 -98 281 -63 72 41 96 124 58 199 -22 43 -30 49 -213
140 -464 233 -1006 406 -1485 474 -106 15 -405 37 -470 34 -19 0 -89 -4 -155
-9z"/>
<path d="M7000 7434 c-865 -63 -1599 -301 -2525 -817 -474 -264 -824 -499
-1160 -778 -130 -108 -392 -365 -509 -499 -461 -526 -738 -1085 -841 -1694
-90 -536 -38 -1065 147 -1491 232 -536 726 -961 1376 -1186 348 -120 678 -162
1257 -163 368 0 523 8 803 45 741 96 1647 456 2397 954 1129 749 1893 1736
2123 2745 50 217 65 358 66 610 1 243 -11 375 -50 568 -55 276 -141 473 -298
683 -445 595 -1028 887 -2006 1004 -130 16 -649 28 -780 19z m790 -248 c929
-116 1600 -531 1914 -1186 296 -617 257 -1333 -114 -2095 -357 -730 -1028
-1436 -1868 -1962 -81 -51 -154 -93 -162 -93 -33 0 -385 185 -512 269 -194
128 -320 232 -488 401 -215 214 -366 410 -535 690 -330 550 -603 1340 -682
1980 -25 206 -25 688 0 885 32 244 75 442 144 667 l36 117 161 55 c424 146
865 242 1266 276 69 6 143 12 165 14 86 9 566 -4 675 -18z m-4086 -1408 c-12
-38 -9 -993 5 -1183 55 -813 199 -1401 476 -1956 288 -574 681 -1041 1247
-1482 92 -71 96 -76 70 -81 -50 -10 -156 -25 -295 -41 l-137 -16 -133 90
c-881 597 -1473 1544 -1621 2596 -68 484 -65 1122 9 1665 l15 105 92 90 c120
117 255 235 269 235 6 0 8 -9 3 -22z"/>
<path d="M7995 6726 c-42 -18 -93 -79 -101 -121 -3 -20 -2 -52 3 -73 16 -57
361 -991 388 -1048 58 -119 226 -128 302 -15 44 65 40 82 -172 657 -108 291
-203 540 -213 553 -41 55 -138 77 -207 47z"/>
<path d="M6915 6289 c-66 -20 -115 -89 -115 -161 0 -35 47 -184 186 -585 102
-296 195 -557 206 -581 50 -106 204 -124 281 -33 31 38 51 103 42 140 -3 14
-92 276 -198 581 -174 505 -194 558 -227 591 -19 21 -53 42 -75 48 -46 13 -59
13 -100 0z"/>
<path d="M8560 4273 c-26 -13 -45 -37 -75 -93 -46 -87 -176 -225 -243 -259
-103 -52 -210 -61 -322 -27 -103 32 -127 46 -165 102 -86 125 -239 207 -426
229 -71 8 -121 -11 -149 -57 -54 -89 13 -188 128 -188 58 0 155 -37 201 -77
153 -131 130 -409 -37 -439 -80 -14 -122 -57 -122 -124 0 -117 126 -154 275
-81 113 56 190 165 221 311 8 41 17 76 18 78 2 2 34 -2 72 -9 149 -26 323 6
451 83 126 75 290 265 338 393 17 43 17 51 4 88 -25 73 -102 104 -169 70z"/>
</g>
</svg>
